# xmcd
#
# Track frame offsets:
#	150
#	18542
#	28205
#	44365
#	58947
#	74050
#	91897
#	97705
#	108712
#	124045
#	137090
#	149962
#	162622
#	174702
#	188312
#	206247
#	278875
#
# Disc length: 4102 seconds
#
# Revision: 1
# Processed by: cddbd v1.5.1PL0 Copyright (c) Steve Scherf et al.
# Submitted via: audiograbber 1.83.01
#
DISCID=0c100411
DTITLE=Ganpati Aarti - Ashtvinayak Geete
DYEAR=1994
DGENRE=Indie
TTITLE0=Shree Ganpatichi Aarti
TTITLE1=Mantra Pushpanjli
TTITLE2=Ganraj Rangi Nachto
TTITLE3=Gajanana Shree Ganraya
TTITLE4=Utha Uthaho Saklik
TTITLE5=Tujh Mgto Mi Aata
TTITLE6=Shlok - Jai Gannayak
TTITLE7=Sa Re Ga Ma Pa Dha Ni Sa
TTITLE8=Ranja Gavala
TTITLE9=Ramamadhvanche Jithe Chitt Laage
TTITLE10=Bal Bhaktalagi Toochi Aasra
TTITLE11=Chal Sadhka Chal Yatrika
TTITLE12=Jhul Jhul Wahe
TTITLE13=Gannayaka Shubhadayaka
TTITLE14=Rachilya Rishi Munini
TTITLE15=Ashtvinayaka Tujha Mahima Kasa
TTITLE16=Pratham Tula Vandito
EXTD=
EXTT0=
EXTT1=
EXTT2=
EXTT3=
EXTT4=
EXTT5=
EXTT6=
EXTT7=
EXTT8=
EXTT9=
EXTT10=
EXTT11=
EXTT12=
EXTT13=
EXTT14=
EXTT15=
EXTT16=
PLAYORDER=
